<svg class="railroad-diagram" height="212" viewBox="0 0 1124 212" width="1124" xmlns="http://www.w3.org/2000/svg">
  <style type="text/css">
    <![CDATA[
    svg.railroad-diagram {
      background-color: white;
    }
    svg.railroad-diagram path {
      stroke-width: 2;
      stroke: black;
      fill: rgba(0,0,0,0);
    }
    svg.railroad-diagram text {
      font: bold 14px monospace;
      text-anchor: middle;
    }
    svg.railroad-diagram text.diagram-text {
      font-size: 12px;
    }
    svg.railroad-diagram text.diagram-arrow {
      font-size: 16px;
    }
    svg.railroad-diagram text.label {
      text-anchor: start;
    }
    svg.railroad-diagram text.comment {
      font: italic 12px monospace;
    }
    svg.railroad-diagram rect {
      stroke-width: 2;
      stroke: black;
      fill: yellow;
    }
    svg.railroad-diagram path.diagram-text {
      stroke-width: 2;
      stroke: black;
      fill: white;
      cursor: help;
    }
    svg.railroad-diagram g.diagram-text:hover path.diagram-text {
      fill: #eee;
    }

    ]]>
  </style>
  <g transform="translate(.5 .5)">
    <path d="M 20 51 v 20 m 10 -20 v 20 m -10 -10 h 20.5"></path>
    <path d="M40 61h10"></path>
    <g>
      <path d="M50 61h0"></path>
      <path d="M260 61h0"></path>
      <path d="M80 61v-20a10 10 0 0 1 10 -10"></path>
      <g>
        <path d="M90 31h23"></path>
        <path d="M207 31h23"></path>
        <text x="160" y="36" class="comment">Code Quality</text>
      </g>
      <path d="M230 31a10 10 0 0 1 10 10v10"></path>
      <path d="M80 61h10"></path>
      <g class="non-terminal">
        <path d="M90 61h36"></path>
        <path d="M194 61h36"></path>
        <rect x="126" y="50" width="68" height="22"></rect>
        <text x="160" y="65">ESLint</text>
      </g>
      <path d="M230 61h10"></path>
      <path d="M80 61v20a10 10 0 0 0 10 10"></path>
      <g class="terminal">
        <path d="M90 91h0"></path>
        <path d="M230 91h0"></path>
        <rect x="90" y="80" width="140" height="22" rx="10" ry="10"></rect>
        <text x="160" y="95">ESLint auto-fix</text>
      </g>
      <path d="M230 91a10 10 0 0 0 10 -10v-20"></path>
      <path d="M80 61v50a10 10 0 0 0 10 10"></path>
      <g class="terminal">
        <path d="M90 121h24"></path>
        <path d="M206 121h24"></path>
        <rect x="114" y="110" width="92" height="22" rx="10" ry="10"></rect>
        <text x="160" y="125">JSInspect</text>
      </g>
      <path d="M230 121a10 10 0 0 0 10 -10v-50"></path>
      <path d="M80 61v80a10 10 0 0 0 10 10"></path>
      <g class="terminal">
        <path d="M90 151h44"></path>
        <path d="M186 151h44"></path>
        <rect x="134" y="140" width="52" height="22" rx="10" ry="10"></rect>
        <text x="160" y="155">a11y</text>
      </g>
      <path d="M230 151a10 10 0 0 0 10 -10v-80"></path>
      <g class="diagram-text">
        <title>techtonic generator choices</title>
        <path d="M 80 51 h -26 a 4 4 0 0 0 -4 4 v 12 a 4 4 0 0 0 4 4 h 26 z" class="diagram-text"></path>
        <text x="65" y="65" class="diagram-text">1+</text>
        <path d="M 240 51 h 16 a 4 4 0 0 1 4 4 v 12 a 4 4 0 0 1 -4 4 h -16 z" class="diagram-text"></path>
        <path d="M 247 59 a 4 4 0 1 0 6 -1 m 2.75 -1 h -4 v 4 m 0 -3 h 2" style="stroke-width: 1.75"></path>
      </g>
    </g>
    <path d="M260 61h10"></path>
    <g>
      <path d="M270 61h0"></path>
      <path d="M512 61h0"></path>
      <path d="M270 61a10 10 0 0 0 10 -10v-10a10 10 0 0 1 10 -10"></path>
      <g>
        <path d="M290 31h40"></path>
        <path d="M452 31h40"></path>
        <text x="391" y="36" class="comment">Style Processing</text>
      </g>
      <path d="M492 31a10 10 0 0 1 10 10v10a10 10 0 0 0 10 10"></path>
      <path d="M270 61h20"></path>
      <g>
        <path d="M290 61h0"></path>
        <path d="M492 61h0"></path>
        <g>
          <path d="M290 61h0"></path>
          <path d="M406 61h0"></path>
          <path d="M290 61h20"></path>
          <g class="terminal">
            <path d="M310 61h0"></path>
            <path d="M386 61h0"></path>
            <rect x="310" y="50" width="76" height="22" rx="10" ry="10"></rect>
            <text x="348" y="65">less.js</text>
          </g>
          <path d="M386 61h20"></path>
          <path d="M290 61a10 10 0 0 1 10 10v10a10 10 0 0 0 10 10"></path>
          <g class="terminal">
            <path d="M310 91h12"></path>
            <path d="M374 91h12"></path>
            <rect x="322" y="80" width="52" height="22" rx="10" ry="10"></rect>
            <text x="348" y="95">Sass</text>
          </g>
          <path d="M386 91a10 10 0 0 0 10 -10v-10a10 10 0 0 1 10 -10"></path>
          <path d="M290 61a10 10 0 0 1 10 10v40a10 10 0 0 0 10 10"></path>
          <g class="terminal">
            <path d="M310 121h12"></path>
            <path d="M374 121h12"></path>
            <rect x="322" y="110" width="52" height="22" rx="10" ry="10"></rect>
            <text x="348" y="125">none</text>
          </g>
          <path d="M386 121a10 10 0 0 0 10 -10v-40a10 10 0 0 1 10 -10"></path>
        </g>
        <path d="M406 61h10"></path>
        <g class="non-terminal">
          <path d="M416 61h0"></path>
          <path d="M492 61h0"></path>
          <rect x="416" y="50" width="76" height="22"></rect>
          <text x="454" y="65">PostCSS</text>
        </g>
      </g>
      <path d="M492 61h20"></path>
    </g>
    <g>
      <path d="M512 61h0"></path>
      <path d="M723 61h0"></path>
      <path d="M512 61a10 10 0 0 0 10 -10v-10a10 10 0 0 1 10 -10"></path>
      <g>
        <path d="M532 31h0"></path>
        <path d="M703 31h0"></path>
        <text x="617.5" y="36" class="comment">Template Precompilation</text>
      </g>
      <path d="M703 31a10 10 0 0 1 10 10v10a10 10 0 0 0 10 10"></path>
      <path d="M512 61h20"></path>
      <g class="terminal">
        <path d="M532 61h35.5"></path>
        <path d="M667.5 61h35.5"></path>
        <rect x="567.5" y="50" width="100" height="22" rx="10" ry="10"></rect>
        <text x="617.5" y="65">Handlebars</text>
      </g>
      <path d="M703 61h20"></path>
      <path d="M512 61a10 10 0 0 1 10 10v10a10 10 0 0 0 10 10"></path>
      <g class="terminal">
        <path d="M532 91h35.5"></path>
        <path d="M667.5 91h35.5"></path>
        <rect x="567.5" y="80" width="100" height="22" rx="10" ry="10"></rect>
        <text x="617.5" y="95">Underscore</text>
      </g>
      <path d="M703 91a10 10 0 0 0 10 -10v-10a10 10 0 0 1 10 -10"></path>
    </g>
    <g>
      <path d="M723 61h0"></path>
      <path d="M878 61h0"></path>
      <path d="M723 61a10 10 0 0 0 10 -10v-10a10 10 0 0 1 10 -10"></path>
      <g>
        <path d="M743 31h0"></path>
        <path d="M858 31h0"></path>
        <text x="800.5" y="36" class="comment">Script Bundling</text>
      </g>
      <path d="M858 31a10 10 0 0 1 10 10v10a10 10 0 0 0 10 10"></path>
      <path d="M723 61h20"></path>
      <g class="terminal">
        <path d="M743 61h31.5"></path>
        <path d="M826.5 61h31.5"></path>
        <rect x="774.5" y="50" width="52" height="22" rx="10" ry="10"></rect>
        <text x="800.5" y="65">r.js</text>
      </g>
      <path d="M858 61h20"></path>
      <path d="M723 61a10 10 0 0 1 10 10v10a10 10 0 0 0 10 10"></path>
      <g class="terminal">
        <path d="M743 91h7.5"></path>
        <path d="M850.5 91h7.5"></path>
        <rect x="750.5" y="80" width="100" height="22" rx="10" ry="10"></rect>
        <text x="800.5" y="95">Browserify</text>
      </g>
      <path d="M858 91a10 10 0 0 0 10 -10v-10a10 10 0 0 1 10 -10"></path>
    </g>
    <path d="M878 61h10"></path>
    <g>
      <path d="M888 61h0"></path>
      <path d="M1074 61h0"></path>
      <path d="M918 61v-20a10 10 0 0 1 10 -10"></path>
      <g>
        <path d="M928 31h11"></path>
        <path d="M1033 31h11"></path>
        <text x="986" y="36" class="comment">Optimization</text>
      </g>
      <path d="M1044 31a10 10 0 0 1 10 10v10"></path>
      <path d="M918 61h10"></path>
      <g class="non-terminal">
        <path d="M928 61h16"></path>
        <path d="M1028 61h16"></path>
        <rect x="944" y="50" width="84" height="22"></rect>
        <text x="986" y="65">UglifyJS</text>
      </g>
      <path d="M1044 61h10"></path>
      <path d="M918 61v20a10 10 0 0 0 10 10"></path>
      <g class="terminal">
        <path d="M928 91h16"></path>
        <path d="M1028 91h16"></path>
        <rect x="944" y="80" width="84" height="22" rx="10" ry="10"></rect>
        <text x="986" y="95">imagemin</text>
      </g>
      <path d="M1044 91a10 10 0 0 0 10 -10v-20"></path>
      <path d="M918 61v50a10 10 0 0 0 10 10"></path>
      <g class="terminal">
        <path d="M928 121h0"></path>
        <path d="M1044 121h0"></path>
        <rect x="928" y="110" width="116" height="22" rx="10" ry="10"></rect>
        <text x="986" y="125">benchmark.js</text>
      </g>
      <path d="M1044 121a10 10 0 0 0 10 -10v-50"></path>
      <g class="diagram-text">
        <title>techtonic generator choices</title>
        <path d="M 918 51 h -26 a 4 4 0 0 0 -4 4 v 12 a 4 4 0 0 0 4 4 h 26 z" class="diagram-text"></path>
        <text x="903" y="65" class="diagram-text">1+</text>
        <path d="M 1054 51 h 16 a 4 4 0 0 1 4 4 v 12 a 4 4 0 0 1 -4 4 h -16 z" class="diagram-text"></path>
        <path d="M 1061 59 a 4 4 0 1 0 6 -1 m 2.75 -1 h -4 v 4 m 0 -3 h 2" style="stroke-width: 1.75"></path>
      </g>
    </g>
    <path d="M1074 61h10"></path>
    <path d="M 1084 61 h 20 m -10 -10 v 20 m 10 -20 v 20"></path>
  </g>
</svg>
